<svg width="133" height="66" viewBox="0 0 133 66" fill="none" xmlns="http://www.w3.org/2000/svg">
<path d="M1.008 8.224C1.008 7.73333 1.16267 7.34933 1.472 7.072C1.792 6.79467 2.22933 6.656 2.784 6.656L8.448 15.44L8.592 15.312L8 14.336V6.656C8.62933 6.656 9.104 6.77867 9.424 7.024C9.744 7.26933 9.904 7.63733 9.904 8.128V16.768C9.904 17.1413 9.75467 17.4667 9.456 17.744C9.15733 18.0107 8.79467 18.144 8.368 18.144L2.464 8.992L2.32 9.104L2.912 10.096V16.672C2.912 17.152 2.74667 17.52 2.416 17.776C2.096 18.0213 1.62667 18.144 1.008 18.144V8.224ZM14.5703 18.144C14.0049 18.144 13.4929 18.0373 13.0343 17.824C12.5756 17.6107 12.2129 17.3013 11.9463 16.896C11.6796 16.4907 11.5463 16.016 11.5463 15.472C11.5463 14.9173 11.6849 14.4373 11.9622 14.032C12.2503 13.616 12.6396 13.3013 13.1303 13.088C13.6209 12.864 14.1703 12.752 14.7783 12.752C15.7489 12.752 16.5649 13.0827 17.2263 13.744L17.3063 13.664C17.1143 13.472 16.9596 13.3333 16.8423 13.248V12.8C16.8423 12.3307 16.6823 11.9627 16.3623 11.696C16.0423 11.4187 15.5943 11.28 15.0182 11.28C14.5063 11.28 14.0583 11.3813 13.6743 11.584C13.2903 11.776 12.9809 12.064 12.7463 12.448C12.5329 12.3733 12.3516 12.256 12.2023 12.096C12.0636 11.936 11.9943 11.7653 11.9943 11.584C11.9943 11.2747 12.1383 10.9867 12.4263 10.72C12.7143 10.4533 13.0983 10.2453 13.5783 10.096C14.0689 9.936 14.5969 9.856 15.1623 9.856C16.2503 9.856 17.0929 10.1173 17.6903 10.64C18.2983 11.152 18.6023 11.856 18.6023 12.752V16.896C18.6023 17.3333 18.4689 17.6533 18.2023 17.856C17.9356 18.048 17.5089 18.144 16.9223 18.144V17.456C17.1143 17.264 17.2423 17.1253 17.3063 17.04L17.2263 16.976C16.8849 17.36 16.5009 17.6533 16.0743 17.856C15.6583 18.048 15.1569 18.144 14.5703 18.144ZM14.9863 16.8C15.5729 16.8 16.0316 16.6827 16.3623 16.448C16.7036 16.2133 16.8743 15.8827 16.8743 15.456C16.8743 15.0293 16.7036 14.6987 16.3623 14.464C16.0316 14.2187 15.5783 14.096 15.0023 14.096C14.4796 14.096 14.0636 14.2187 13.7543 14.464C13.4556 14.6987 13.3063 15.0293 13.3063 15.456C13.3063 15.8933 13.4556 16.2293 13.7543 16.464C14.0529 16.688 14.4636 16.8 14.9863 16.8ZM23.1843 18.144C22.9603 18.144 22.7629 18.0907 22.5923 17.984C22.4323 17.8773 22.3149 17.7333 22.2403 17.552L19.2963 10C19.3709 9.95733 19.4883 9.92533 19.6483 9.904C19.8083 9.872 19.9469 9.856 20.0643 9.856C20.3523 9.856 20.6083 9.91467 20.8323 10.032C21.0669 10.1493 21.2216 10.3253 21.2963 10.56L23.0883 15.808L22.8483 16.512L22.9603 16.56L25.0723 10.56C25.1576 10.3253 25.3069 10.1493 25.5203 10.032C25.7443 9.91467 26.0003 9.856 26.2883 9.856C26.4163 9.856 26.5603 9.872 26.7203 9.904C26.8803 9.92533 26.9976 9.95733 27.0723 10L24.1283 17.552C24.0536 17.7333 23.9309 17.8773 23.7603 17.984C23.6003 18.0907 23.4083 18.144 23.1843 18.144Z" fill="black"/>
<line y1="-1" x2="18.6129" y2="-1" transform="matrix(0.407188 -0.913345 0.94122 0.337793 28 18)" stroke="#FF3F3A" stroke-width="2"/>
<line y1="-1" x2="20.8087" y2="-1" transform="matrix(-0.576683 -0.816968 0.869435 -0.494048 40 18)" stroke="#FF3F3A" stroke-width="2"/>
</svg>
