<?xml version="1.0" encoding="UTF-8" standalone="no" ?>
<!DOCTYPE svg PUBLIC "-//W3C//DTD SVG 1.1//EN" "http://www.w3.org/Graphics/SVG/1.1/DTD/svg11.dtd">
<svg xmlns="http://www.w3.org/2000/svg" xmlns:xlink="http://www.w3.org/1999/xlink" version="1.1" width="1080" height="1080" viewBox="0 0 1080 1080" xml:space="preserve">
<desc>Created with Fabric.js 5.2.4</desc>
<defs>
</defs>
<rect x="0" y="0" width="100%" height="100%" fill="transparent"></rect>
<g transform="matrix(1 0 0 1 540 540)" id="03775427-1c10-416c-a7b8-4acc2a952278"  >
</g>
<g transform="matrix(1 0 0 1 540 540)" id="4dde9947-b7c3-4c98-a88f-7a4fe4f72912"  >
<rect style="stroke: none; stroke-width: 1; stroke-dasharray: none; stroke-linecap: butt; stroke-dashoffset: 0; stroke-linejoin: miter; stroke-miterlimit: 4; fill: rgb(255,255,255); fill-rule: nonzero; opacity: 1; visibility: hidden;" vector-effect="non-scaling-stroke"  x="-540" y="-540" rx="0" ry="0" width="1080" height="1080" />
</g>
<g transform="matrix(0 0 0 0 0 0)"  >
<g style=""   >
</g>
</g>
<g transform="matrix(2.52 0 0 2.52 540 540)"  >
<g style="" vector-effect="non-scaling-stroke"   >
		<g transform="matrix(1 0 0 1 -6.48 2.79)"  >
<path style="stroke: none; stroke-width: 1; stroke-dasharray: none; stroke-linecap: butt; stroke-dashoffset: 0; stroke-linejoin: miter; stroke-miterlimit: 4; fill: rgb(0,0,0); fill-rule: nonzero; opacity: 1;" vector-effect="non-scaling-stroke"  transform=" translate(-14.04, -12.4)" d="M 1.008 8.224 C 1.008 7.73333 1.16267 7.34933 1.472 7.072 C 1.792 6.79467 2.22933 6.656 2.784 6.656 L 8.448 15.44 L 8.592 15.312 L 8 14.336 L 8 6.656 C 8.62933 6.656 9.104 6.77867 9.424 7.024 C 9.744 7.26933 9.904 7.63733 9.904 8.128 L 9.904 16.768 C 9.904 17.1413 9.75467 17.4667 9.456 17.744 C 9.15733 18.0107 8.79467 18.144 8.368 18.144 L 2.464 8.992 L 2.32 9.104 L 2.912 10.096 L 2.912 16.672 C 2.912 17.152 2.74667 17.52 2.416 17.776 C 2.096 18.0213 1.62667 18.144 1.008 18.144 L 1.008 8.224 Z M 14.5703 18.144 C 14.0049 18.144 13.4929 18.0373 13.0343 17.824 C 12.5756 17.6107 12.2129 17.3013 11.9463 16.896 C 11.6796 16.4907 11.5463 16.016 11.5463 15.472 C 11.5463 14.9173 11.6849 14.4373 11.9622 14.032 C 12.2503 13.616 12.6396 13.3013 13.1303 13.088 C 13.6209 12.864 14.1703 12.752 14.7783 12.752 C 15.7489 12.752 16.5649 13.0827 17.2263 13.744 L 17.3063 13.664 C 17.1143 13.472 16.9596 13.3333 16.8423 13.248 L 16.8423 12.8 C 16.8423 12.3307 16.6823 11.9627 16.3623 11.696 C 16.0423 11.4187 15.5943 11.28 15.0182 11.28 C 14.5063 11.28 14.0583 11.3813 13.6743 11.584 C 13.2903 11.776 12.9809 12.064 12.7463 12.448 C 12.5329 12.3733 12.3516 12.256 12.2023 12.096 C 12.0636 11.936 11.9943 11.7653 11.9943 11.584 C 11.9943 11.2747 12.1383 10.9867 12.4263 10.72 C 12.7143 10.4533 13.0983 10.2453 13.5783 10.096 C 14.0689 9.936 14.5969 9.856 15.1623 9.856 C 16.2503 9.856 17.0929 10.1173 17.6903 10.64 C 18.2983 11.152 18.6023 11.856 18.6023 12.752 L 18.6023 16.896 C 18.6023 17.3333 18.4689 17.6533 18.2023 17.856 C 17.9356 18.048 17.5089 18.144 16.9223 18.144 L 16.9223 17.456 C 17.1143 17.264 17.2423 17.1253 17.3063 17.04 L 17.2263 16.976 C 16.8849 17.36 16.5009 17.6533 16.0743 17.856 C 15.6583 18.048 15.1569 18.144 14.5703 18.144 Z M 14.9863 16.8 C 15.5729 16.8 16.0316 16.6827 16.3623 16.448 C 16.7036 16.2133 16.8743 15.8827 16.8743 15.456 C 16.8743 15.0293 16.7036 14.6987 16.3623 14.464 C 16.0316 14.2187 15.5783 14.096 15.0023 14.096 C 14.4796 14.096 14.0636 14.2187 13.7543 14.464 C 13.4556 14.6987 13.3063 15.0293 13.3063 15.456 C 13.3063 15.8933 13.4556 16.2293 13.7543 16.464 C 14.0529 16.688 14.4636 16.8 14.9863 16.8 Z M 23.1843 18.144 C 22.9603 18.144 22.7629 18.0907 22.5923 17.984 C 22.4323 17.8773 22.3149 17.7333 22.2403 17.552 L 19.2963 10 C 19.3709 9.95733 19.4883 9.92533 19.6483 9.904 C 19.8083 9.872 19.9469 9.856 20.0643 9.856 C 20.3523 9.856 20.6083 9.91467 20.8323 10.032 C 21.0669 10.1493 21.2216 10.3253 21.2963 10.56 L 23.0883 15.808 L 22.8483 16.512 L 22.9603 16.56 L 25.0723 10.56 C 25.1576 10.3253 25.3069 10.1493 25.5203 10.032 C 25.7443 9.91467 26.0003 9.856 26.2883 9.856 C 26.4163 9.856 26.5603 9.872 26.7203 9.904 C 26.8803 9.92533 26.9976 9.95733 27.0723 10 L 24.1283 17.552 C 24.0536 17.7333 23.9309 17.8773 23.7603 17.984 C 23.6003 18.0907 23.4083 18.144 23.1843 18.144 Z" stroke-linecap="round" />
</g>
		<g transform="matrix(0.41 -0.91 0.94 0.34 10.33 -0.45)"  >
<line style="stroke: rgb(255,63,58); stroke-width: 2; stroke-dasharray: none; stroke-linecap: butt; stroke-dashoffset: 0; stroke-linejoin: miter; stroke-miterlimit: 4; fill: none; fill-rule: nonzero; opacity: 1;" vector-effect="non-scaling-stroke"  x1="-9.30645" y1="0" x2="9.30645" y2="0" />
</g>
		<g transform="matrix(-0.58 -0.82 0.87 -0.49 12.61 0.38)"  >
<line style="stroke: rgb(255,63,58); stroke-width: 2; stroke-dasharray: none; stroke-linecap: butt; stroke-dashoffset: 0; stroke-linejoin: miter; stroke-miterlimit: 4; fill: none; fill-rule: nonzero; opacity: 1;" vector-effect="non-scaling-stroke"  x1="-10.40435" y1="0" x2="10.40435" y2="0" />
</g>
</g>
</g>
</svg>