<?xml version="1.0" encoding="UTF-8" standalone="no" ?>
<!DOCTYPE svg PUBLIC "-//W3C//DTD SVG 1.1//EN" "http://www.w3.org/Graphics/SVG/1.1/DTD/svg11.dtd">
<svg xmlns="http://www.w3.org/2000/svg" xmlns:xlink="http://www.w3.org/1999/xlink" version="1.1" width="1080" height="1080" viewBox="0 0 1080 1080" xml:space="preserve">
<desc>Created with Fabric.js 5.2.4</desc>
<defs>
</defs>
<g transform="matrix(1 0 0 1 540 540)" id="03775427-1c10-416c-a7b8-4acc2a952278"  >
</g>
<g transform="matrix(1 0 0 1 540 540)" id="4dde9947-b7c3-4c98-a88f-7a4fe4f72912"  >
<rect style="stroke: none; stroke-width: 1; stroke-dasharray: none; stroke-linecap: butt; stroke-dashoffset: 0; stroke-linejoin: miter; stroke-miterlimit: 4; fill: rgb(255,255,255); fill-rule: nonzero; opacity: 1; visibility: hidden;" vector-effect="non-scaling-stroke"  x="-540" y="-540" rx="0" ry="0" width="1080" height="1080" />
</g>
<g transform="matrix(0 0 0 0 0 0)"  >
<g style=""   >
</g>
</g>
<g transform="matrix(1 0 0 1 588.26 540)" clip-path="url(#CLIPPATH_10)"  >
<clipPath id="CLIPPATH_10" >
	<rect transform="matrix(1 0 0 1 -48.2 0)" id="clip0_21170_1647" x="-65" y="-11" rx="0" ry="0" width="130" height="22" />
</clipPath>
<path style="stroke: none; stroke-width: 1; stroke-dasharray: none; stroke-linecap: butt; stroke-dashoffset: 0; stroke-linejoin: miter; stroke-miterlimit: 4; fill: rgb(255,63,58); fill-rule: nonzero; opacity: 1;" vector-effect="non-scaling-stroke"  transform=" translate(-113.2, -11)" d="M 117.7 9.7 L 111.5 1.6 C 111.1 1.2 110.6 1 110.1 1 C 109.6 1 109.1 1.2 108.7 1.6 C 108 2.4 108 3.6 108.7 4.4 L 113.6 11 L 108.7 17.6 C 108 18.4 108 19.6 108.7 20.4 C 109.1 20.8 109.6 21 110.1 21 C 110.6 21 111.1 20.8 111.5 20.4 L 117.7 12.3 C 118.4 11.7 118.4 10.5 117.7 9.7 Z" stroke-linecap="round" />
</g>
<g transform="matrix(1 0 0 1 599.9 540)" clip-path="url(#CLIPPATH_11)"  >
<clipPath id="CLIPPATH_11" >
	<rect transform="matrix(1 0 0 1 -59.84 0)" id="clip0_21170_1647" x="-65" y="-11" rx="0" ry="0" width="130" height="22" />
</clipPath>
<path style="stroke: none; stroke-width: 1; stroke-dasharray: none; stroke-linecap: butt; stroke-dashoffset: 0; stroke-linejoin: miter; stroke-miterlimit: 4; fill: rgb(255,63,58); fill-rule: nonzero; opacity: 1;" vector-effect="non-scaling-stroke"  transform=" translate(-124.84, -11)" d="M 120.343 9.7 L 126.543 1.6 C 126.943 1.2 127.443 1 127.943 1 C 128.443 1 128.943 1.2 129.343 1.6 C 130.043 2.4 130.043 3.6 129.343 4.4 L 124.443 11 L 129.343 17.6 C 130.043 18.4 130.043 19.6 129.343 20.4 C 128.943 20.8 128.443 21 127.943 21 C 127.443 21 126.943 20.8 126.543 20.4 L 120.343 12.3 C 119.643 11.7 119.643 10.5 120.343 9.7 Z" stroke-linecap="round" />
</g>
<g transform="matrix(1 0 0 1 540.5 540.5)" style="" id="97b4b9c1-34e9-428b-a315-3c22543855e5"  >
		<text xml:space="preserve" font-family="Lato" font-size="40" font-style="normal" font-weight="400" style="stroke: none; stroke-width: 1; stroke-dasharray: none; stroke-linecap: butt; stroke-dashoffset: 0; stroke-linejoin: miter; stroke-miterlimit: 4; fill: rgb(0,0,0); fill-rule: nonzero; opacity: 1; white-space: pre;" ><tspan x="-35.18" y="12.57" >Nav</tspan></text>
</g>
</svg>